<svg id="Camada_1" data-name="Camada 1" xmlns="http://www.w3.org/2000/svg" xmlns:xlink="http://www.w3.org/1999/xlink" viewBox="0 0 480 642.6"><defs><style>.cls-1{fill:url(#Gradiente_sem_nome_16);}.cls-2{fill:none;}.cls-3{fill:#fff;opacity:0.35;}</style><linearGradient id="Gradiente_sem_nome_16" x1="297.64" y1="752.44" x2="297.64" y2="109.84" gradientUnits="userSpaceOnUse"><stop offset="0" stop-color="#2897e3"/><stop offset="1" stop-color="#13c1e0"/></linearGradient></defs><path class="cls-1" d="M537.64,109.85V752.44h-480V109.84a273.79,273.79,0,0,0,87.79,96.94,271.15,271.15,0,0,0,152.21,46.45,271.15,271.15,0,0,0,152.21-46.45,273.67,273.67,0,0,0,40.44-33.35A273.24,273.24,0,0,0,537.64,109.85Z" transform="translate(-57.64 -109.84)"/><line class="cls-2" x1="480" y1="57.76" x2="480" y2="0.01"/><path class="cls-3" d="M537.64,109.85V167.6a271.71,271.71,0,0,1-22.16,25.05,271.6,271.6,0,0,1-192.65,79.8q-12.74,0-25.19-1.15a271.31,271.31,0,0,1-152.21-64.52,271.15,271.15,0,0,0,152.21,46.45,271.15,271.15,0,0,0,152.21-46.45,273.67,273.67,0,0,0,40.44-33.35A273.24,273.24,0,0,0,537.64,109.85Z" transform="translate(-57.64 -109.84)"/><path class="cls-3" d="M449.85,206.78A271.31,271.31,0,0,1,297.64,271.3q-12.45,1.14-25.19,1.15A272,272,0,0,1,57.64,167.6V109.84a273.79,273.79,0,0,0,87.79,96.94,271.15,271.15,0,0,0,152.21,46.45A271.15,271.15,0,0,0,449.85,206.78Z" transform="translate(-57.64 -109.84)"/></svg>