<?xml version="1.0"?>
<svg xmlns="http://www.w3.org/2000/svg" xmlns:xlink="http://www.w3.org/1999/xlink" xmlns:svgjs="http://svgjs.com/svgjs" version="1.1" width="512" height="512" x="0" y="0" viewBox="0 0 16 16" style="enable-background:new 0 0 512 512" xml:space="preserve" class=""><g><path xmlns="http://www.w3.org/2000/svg" d="m14.794 5.1662-1.12213-3.74042c-.255859-.853027-1.02588-1.42578-1.91602-1.42578h-7.51172c-.890137 0-1.66016.572754-1.91602 1.42578l-1.12213 3.74042c-.708557.307922-1.20599 1.01306-1.20599 1.8338v4c0 .552246.447754 1 1 1h.000061l-.000061.999939c0 .552307.447693 1.00006 1 1.00006h1.00006c.552246 0 1-.447754 1-1l-.0004272-1h8.00037l-.000061.999939c0 .552307.447693 1.00006 1 1.00006h1.00006c.552307 0 1-.447754 1-1v-.999939l-.0003662-.000061h.0003662c.552246 0 1-.447754 1-1v-4c0-.82074-.497436-1.52588-1.20599-1.8338zm-10.5499-3.1662h7.51172l.900024 3h-9.31177l.900024-3zm-.244141 7.5c-.552307 0-1-.447754-1-1 0-.552307.447693-1 1-1s1 .447693 1 1c0 .552246-.447693 1-1 1zm8 0c-.552307 0-1-.447754-1-1 0-.552307.447693-1 1-1s1 .447693 1 1c0 .552246-.447693 1-1 1z" transform="translate(0 1)" fill="#ffffff" data-original="#000000" style="" class=""/></g></svg>
