<?xml version="1.0" encoding="utf-8"?>
<!-- Generator: Adobe Illustrator 25.0.0, SVG Export Plug-In . SVG Version: 6.00 Build 0)  -->
<svg version="1.1" id="Camada_1" xmlns:svgjs="http://svgjs.com/svgjs"
	 xmlns="http://www.w3.org/2000/svg" xmlns:xlink="http://www.w3.org/1999/xlink" x="0px" y="0px" viewBox="0 0 512 512"
	 style="enable-background:new 0 0 512 512;" xml:space="preserve">
<style type="text/css">
	.st0{fill:url(#SVGID_1_);}
	.st1{fill:url(#SVGID_2_);}
	.st2{fill:url(#SVGID_3_);}
	.st3{fill:url(#SVGID_4_);}
	.st4{fill:url(#SVGID_5_);}
	.st5{fill:url(#SVGID_6_);}
</style>
<g>
	<g>
		<linearGradient id="SVGID_1_" gradientUnits="userSpaceOnUse" x1="255.9995" y1="10.254" x2="255.9995" y2="395.304">
			<stop  offset="0" style="stop-color:#E9695C"/>
			<stop  offset="1" style="stop-color:#E03459"/>
		</linearGradient>
		<path class="st0" d="M148,395.3c-4.8-9.6-8.3-19.9-10.4-30.4c-3.7-18.7-2.9-37.6,2.3-56.1l12.3-43.7l14.2-50.6l32.5,34l31.8-50.6
			l25.4-40.5l25.4,40.5l31.8,50.6l32.5-34l14.2,50.6l12.3,43.7c5.2,18.5,6,37.4,2.3,56.1c-2.1,10.5-5.6,20.8-10.4,30.4
			c53.2-42,80.7-114.1,60.5-185.9l-23.7-84.4l-44,46L256,10.3L155.1,171l-44-46l-23.7,84.4C67.3,281.2,94.7,353.3,148,395.3
			L148,395.3z"/>
		<linearGradient id="SVGID_2_" gradientUnits="userSpaceOnUse" x1="256.0005" y1="213.794" x2="256.0005" y2="432.2542">
			<stop  offset="0" style="stop-color:#E9695C"/>
			<stop  offset="1" style="stop-color:#E03459"/>
		</linearGradient>
		<path class="st1" d="M343.3,316.9L331,273.2L308.2,297L256,213.8L203.8,297L181,273.2l-12.3,43.7c-16,57,25.9,114.3,85,115.3
			c1.5,0,3,0,4.5,0C317.4,431.2,359.2,373.9,343.3,316.9z"/>
		<linearGradient id="SVGID_3_" gradientUnits="userSpaceOnUse" x1="136.8025" y1="406.871" x2="136.8025" y2="501.7459">
			<stop  offset="0" style="stop-color:#E9695C"/>
			<stop  offset="1" style="stop-color:#E03459"/>
		</linearGradient>
		<path class="st2" d="M82,419.7c-20.6,7.9-30.9,31.1-23,51.7l1.8,4.6c7.9,20.6,31.1,30.9,51.7,23l104.9-40.3
			c-38.3-7.1-73.5-25.1-101.8-51.9L82,419.7z"/>
		<linearGradient id="SVGID_4_" gradientUnits="userSpaceOnUse" x1="375.1975" y1="406.871" x2="375.1975" y2="501.7455">
			<stop  offset="0" style="stop-color:#E9695C"/>
			<stop  offset="1" style="stop-color:#E03459"/>
		</linearGradient>
		<path class="st3" d="M430,419.7l-33.5-12.9c-28.4,26.9-63.5,44.8-101.8,51.9l104.9,40.3c20.6,7.9,43.8-2.4,51.7-23l1.8-4.6
			C461,450.8,450.7,427.7,430,419.7z"/>
		<linearGradient id="SVGID_5_" gradientUnits="userSpaceOnUse" x1="464.1675" y1="351.2149" x2="464.1675" y2="434.907">
			<stop  offset="0" style="stop-color:#E9695C"/>
			<stop  offset="1" style="stop-color:#E03459"/>
		</linearGradient>
		<path class="st4" d="M472,351.2h-33.7c-5.2,10.1-11.2,19.8-18,28.9c-1.3,1.7-2.6,3.4-4,5.1l24.5,6.5c17.5,6.7,31.3,19.8,38.9,36.9
			c0.9,2.1,1.7,4.2,2.4,6.3c17.2-4.5,29.9-20.1,29.9-38.7v-5C512,369.1,494.1,351.2,472,351.2L472,351.2z"/>
		<linearGradient id="SVGID_6_" gradientUnits="userSpaceOnUse" x1="48.365" y1="351.216" x2="48.365" y2="434.908">
			<stop  offset="0" style="stop-color:#E9695C"/>
			<stop  offset="1" style="stop-color:#E03459"/>
		</linearGradient>
		<path class="st5" d="M96.7,386.5c-1.7-2.1-3.4-4.3-5-6.4c-6.8-9.1-12.8-18.8-18-28.9H40c-22.1,0-40,17.9-40,40v5
			c0,18.6,12.7,34.2,29.9,38.7c0.7-2.1,1.5-4.2,2.4-6.3c7.6-17.1,21.4-30.2,38.9-36.9L96.7,386.5z"/>
	</g>
</g>
</svg>
