<?xml version="1.0"?>
<svg xmlns="http://www.w3.org/2000/svg" xmlns:xlink="http://www.w3.org/1999/xlink" xmlns:svgjs="http://svgjs.com/svgjs" version="1.1" width="512" height="512" x="0" y="0" viewBox="0 0 512 512" style="enable-background:new 0 0 512 512" xml:space="preserve" class=""><g><g xmlns="http://www.w3.org/2000/svg"><path d="m493.916 81.707c-14.113-24.388-34.397-44.842-58.654-59.15-25.018-14.757-53.67-22.557-82.862-22.557-29.191 0-57.846 7.8-82.863 22.557-24.258 14.309-44.541 34.763-58.654 59.15-2.881 4.979-2.662 11.165.564 15.927l64.511 95.223c.374-.027.747-.057 1.129-.057h46.467l-9.485-28.457c-2.619-7.859 1.628-16.354 9.487-18.974 7.86-2.618 16.354 1.629 18.974 9.487l9.87 29.611 9.87-29.611c2.619-7.859 11.113-12.107 18.974-9.487 7.859 2.62 12.106 11.114 9.487 18.974l-9.485 28.457h46.468c.381 0 .754.029 1.129.057l64.51-95.223c3.225-4.762 3.444-10.948.563-15.927z" fill="#ffffff" data-original="#000000" style=""/><path d="m289.199 480.934c0 17.13 13.936 31.066 31.066 31.066h64.268c17.13 0 31.066-13.936 31.066-31.066v-258.134h-126.4z" fill="#ffffff" data-original="#000000" style=""/><path d="m32.133 190.667h142.467v146.733h-142.467z" fill="#ffffff" data-original="#000000" style=""/><path d="m16.066 480.934c0 17.13 13.936 31.066 31.066 31.066h112.468c17.13 0 31.066-13.936 31.066-31.066v-113.534h-174.6z" fill="#ffffff" data-original="#000000" style=""/><path d="m158.533 31.066c0-14.918-10.645-26.167-24.76-26.167-3.569 0-7.179.72-10.728 2.141l-50.499 20.199c-13.88 5.552-24.347 21.012-24.347 35.961v97.467h110.334z" fill="#ffffff" data-original="#000000" style=""/></g></g></svg>
