<?xml version="1.0" encoding="utf-8"?>
<!-- Generator: Adobe Illustrator 25.0.0, SVG Export Plug-In . SVG Version: 6.00 Build 0)  -->
<svg version="1.1" id="Camada_1" xmlns:svgjs="http://svgjs.com/svgjs"
	 xmlns="http://www.w3.org/2000/svg" xmlns:xlink="http://www.w3.org/1999/xlink" x="0px" y="0px" viewBox="0 0 512 512"
	 style="enable-background:new 0 0 512 512;" xml:space="preserve">
<style type="text/css">
	.st0{fill:url(#SVGID_1_);}
	.st1{fill:url(#SVGID_2_);}
	.st2{fill:url(#SVGID_3_);}
	.st3{fill:url(#SVGID_4_);}
</style>
<g>
	<g>
		<g>
			<g>
				<linearGradient id="SVGID_1_" gradientUnits="userSpaceOnUse" x1="150.9138" y1="60.4214" x2="150.9138" y2="432.3622">
					<stop  offset="0" style="stop-color:#E9695C"/>
					<stop  offset="1" style="stop-color:#E03459"/>
				</linearGradient>
				<path class="st0" d="M78.3,60.4C78.3,60.4,78.3,60.4,78.3,60.4c-4.9,0-9.4,1.9-12.9,5.3c-3.5,3.5-5.4,8.1-5.4,13v274.7
					c0,10.1,8.2,18.3,18.3,18.3c42.6,0.1,114.1,9,163.4,60.6V144.8c0-3.4-0.9-6.6-2.5-9.3C198.8,70.4,121.1,60.5,78.3,60.4z"/>
				<linearGradient id="SVGID_2_" gradientUnits="userSpaceOnUse" x1="361.0888" y1="60.4196" x2="361.0888" y2="432.3604">
					<stop  offset="0" style="stop-color:#E9695C"/>
					<stop  offset="1" style="stop-color:#E03459"/>
				</linearGradient>
				<path class="st1" d="M452,353.5V78.7c0-4.9-1.9-9.5-5.4-13c-3.4-3.4-8-5.3-12.8-5.3c0,0,0,0,0,0c-42.7,0.1-120.5,10-160.9,75.2
					c-1.6,2.7-2.5,5.9-2.5,9.3v287.5c49.3-51.6,120.7-60.5,163.4-60.6C443.7,371.8,452,363.5,452,353.5z"/>
				<linearGradient id="SVGID_3_" gradientUnits="userSpaceOnUse" x1="403.8099" y1="123.7786" x2="403.8099" y2="451.582">
					<stop  offset="0" style="stop-color:#E9695C"/>
					<stop  offset="1" style="stop-color:#E03459"/>
				</linearGradient>
				<path class="st2" d="M493.7,123.8h-13.3v229.7c0,25.7-21,46.7-46.7,46.8c-36.2,0.1-95.8,7.2-138.1,47.1
					c73.1-17.9,150.1-6.3,194,3.7c5.5,1.2,11.1,0,15.5-3.5c4.4-3.5,6.9-8.7,6.9-14.3V142.1C512,132,503.8,123.8,493.7,123.8z"/>
				<linearGradient id="SVGID_4_" gradientUnits="userSpaceOnUse" x1="108.1892" y1="123.7786" x2="108.1892" y2="451.578">
					<stop  offset="0" style="stop-color:#E9695C"/>
					<stop  offset="1" style="stop-color:#E03459"/>
				</linearGradient>
				<path class="st3" d="M31.6,353.5V123.8H18.3C8.2,123.8,0,132,0,142.1v291.2c0,5.6,2.5,10.8,6.9,14.3c4.4,3.5,10,4.8,15.5,3.5
					c43.9-10,120.9-21.6,194-3.7c-42.2-40-101.9-47-138.1-47.1C52.6,400.2,31.6,379.2,31.6,353.5z"/>
			</g>
		</g>
	</g>
</g>
</svg>
