<?xml version="1.0" encoding="utf-8"?>
<!-- Generator: Adobe Illustrator 25.0.0, SVG Export Plug-In . SVG Version: 6.00 Build 0)  -->
<svg version="1.1" id="Camada_1" xmlns:svgjs="http://svgjs.com/svgjs"
	 xmlns="http://www.w3.org/2000/svg" xmlns:xlink="http://www.w3.org/1999/xlink" x="0px" y="0px" viewBox="0 0 512 512"
	 style="enable-background:new 0 0 512 512;" xml:space="preserve">
<style type="text/css">
	.st0{fill:url(#SVGID_1_);}
	.st1{fill:url(#SVGID_2_);}
	.st2{fill:url(#SVGID_3_);}
</style>
<g>
	<g>
		<g>
			<linearGradient id="SVGID_1_" gradientUnits="userSpaceOnUse" x1="162.91" y1="-6.374698e-04" x2="162.91" y2="186.179">
				<stop  offset="0" style="stop-color:#E9695C"/>
				<stop  offset="1" style="stop-color:#E03459"/>
			</linearGradient>
			<path class="st0" d="M179.4,99.9c-11.4-11.4-16.5-17-16.5-30.1c0-13.1,5-18.7,16.5-30.1c9.1-9.1,9.1-23.8,0-32.9
				c-9.1-9.1-23.8-9.1-32.9,0c-12.7,12.7-30.1,30.1-30.1,63c0,32.9,17.4,50.3,30.1,63c11.4,11.4,16.5,17,16.5,30.1
				c0,12.9,10.4,23.3,23.3,23.3s23.3-10.4,23.3-23.3C209.5,130,192.1,112.6,179.4,99.9z"/>
		</g>
	</g>
	<g>
		<g>
			<linearGradient id="SVGID_2_" gradientUnits="userSpaceOnUse" x1="271.5161" y1="-6.374698e-04" x2="271.5161" y2="186.179">
				<stop  offset="0" style="stop-color:#E9695C"/>
				<stop  offset="1" style="stop-color:#E03459"/>
			</linearGradient>
			<path class="st1" d="M288,99.9c-11.4-11.4-16.5-17-16.5-30.1c0-13.1,5-18.7,16.5-30.1c9.1-9.1,9.1-23.8,0-32.9
				c-9.1-9.1-23.8-9.1-32.9,0c-12.7,12.7-30.1,30.1-30.1,63c0,32.9,17.4,50.3,30.1,63c11.4,11.4,16.5,17,16.5,30.1
				c0,12.9,10.4,23.3,23.3,23.3s23.3-10.4,23.3-23.3C318.1,130,300.7,112.6,288,99.9z"/>
		</g>
	</g>
	<g>
		<g>
			<linearGradient id="SVGID_3_" gradientUnits="userSpaceOnUse" x1="256" y1="232.725" x2="256" y2="511.999">
				<stop  offset="0" style="stop-color:#E9695C"/>
				<stop  offset="1" style="stop-color:#E03459"/>
			</linearGradient>
			<path class="st2" d="M381.4,403.4h22c0,0,0,0,0.1,0c47,0,85.3-38.3,85.3-85.3c0-47.1-38.3-85.3-85.3-85.3h-31H62.1
				c-12.9,0-23.3,10.4-23.3,23.3v77.6c0,52.2,22.5,99.2,58.4,131.9H46.5c-12.9,0-23.3,10.4-23.3,23.3c0,12.9,10.4,23.3,23.3,23.3
				h170.7h170.7c12.9,0,23.3-10.4,23.3-23.3c0-12.9-10.4-23.3-23.3-23.3h-50.6C356.1,448.3,371.3,427.2,381.4,403.4z M395.6,333.6
				v-54.3h7.8c21.4,0,38.8,17.4,38.8,38.8s-17.4,38.8-38.8,38.8c0,0,0,0,0,0h-9.2C395.1,349.2,395.6,341.5,395.6,333.6z"/>
		</g>
	</g>
</g>
</svg>
