<?xml version="1.0" encoding="utf-8"?>
<!-- Generator: Adobe Illustrator 25.0.0, SVG Export Plug-In . SVG Version: 6.00 Build 0)  -->
<svg version="1.1" id="Camada_1" xmlns:svgjs="http://svgjs.com/svgjs"
	 xmlns="http://www.w3.org/2000/svg" xmlns:xlink="http://www.w3.org/1999/xlink" x="0px" y="0px" viewBox="0 0 512 512"
	 style="enable-background:new 0 0 512 512;" xml:space="preserve">
<style type="text/css">
	.st0{fill:url(#SVGID_1_);}
</style>
<g>
	<g>
		<g>
			<linearGradient id="SVGID_1_" gradientUnits="userSpaceOnUse" x1="256.0001" y1="7.735215e-04" x2="256.0001" y2="512">
				<stop  offset="0" style="stop-color:#E9695C"/>
				<stop  offset="1" style="stop-color:#E03459"/>
			</linearGradient>
			<path class="st0" d="M505.7,121.5C489.3,61.9,440.9,16.1,381.2,3.7h0c-44.4-9.2-88.4-1-125.2,23c-36.8-24.1-80.9-32.2-125.2-23
				C71.1,16.1,22.7,61.9,6.3,121.5c-16.6,60.2,2.4,123.8,48.2,165.8c24.7,22.7,36.7,56.6,36.7,103.5c0,37.1,8.1,69.1,23.3,90.6
				c13.7,19.4,32.9,30.6,52.5,30.6c25.6,0,44.2-18.8,44.2-44.6V410c0-24.9,17.5-49.2,45.7-48.9C283.1,361,301,385.3,301,410v57.4
				c0,25.8,18.6,44.6,44.2,44.6c19.6,0,38.7-11.1,52.5-30.6c15.2-21.5,23.3-53.5,23.3-90.6c0-46.9,12-80.8,36.7-103.5
				C503.3,245.3,522.4,181.7,505.7,121.5z M260.7,180.2l-60.3,20.1l-20.1,60.3c-2,6.1-7.8,10.2-14.2,10.2c-6.5,0-12.2-4.1-14.2-10.2
				l-20.1-60.3l-60.3-20.1c-6.1-2-10.2-7.8-10.2-14.2c0-6.5,4.1-12.2,10.2-14.2l60.3-20.1l20.1-60.3c4.5-13.6,23.9-13.6,28.4,0
				l20.1,60.3l60.3,20.1c6.1,2,10.2,7.8,10.2,14.2C271,172.4,266.9,178.1,260.7,180.2z"/>
		</g>
	</g>
</g>
</svg>
