<?xml version="1.0"?>
<svg xmlns="http://www.w3.org/2000/svg" xmlns:xlink="http://www.w3.org/1999/xlink" xmlns:svgjs="http://svgjs.com/svgjs" version="1.1" width="512" height="512" x="0" y="0" viewBox="0 0 512 512" style="enable-background:new 0 0 512 512" xml:space="preserve" class=""><g>
<g xmlns="http://www.w3.org/2000/svg">
	<g>
		<path d="M505.733,121.503C489.264,61.888,440.918,16.134,381.172,3.706h0.015c-44.373-9.209-88.396-1.039-125.187,23    c-36.79-24.069-80.871-32.237-125.172-23C71.083,16.134,22.737,61.888,6.267,121.503c-16.631,60.229,2.435,123.767,48.155,165.827    c24.683,22.692,36.673,56.554,36.673,103.49c0,37.098,8.052,69.09,23.278,90.626C128.105,500.873,147.225,512,166.842,512    c25.605,0,44.184-18.754,44.184-44.593v-57.389c0-24.908,17.456-49.204,45.662-48.872c26.451-0.163,44.286,24.162,44.286,48.872    v57.389c0,25.839,18.578,44.593,44.184,44.593c19.618,0,38.738-11.127,52.47-30.553c15.225-21.536,23.278-53.528,23.278-90.626    c0-46.936,11.99-80.798,36.673-103.49C503.299,245.269,522.364,181.732,505.733,121.503z M260.744,180.166l-60.346,20.13    l-20.13,60.346c-2.035,6.12-7.76,10.248-14.216,10.248c-6.456,0-12.181-4.129-14.216-10.248l-20.13-60.346l-60.346-20.13    c-6.119-2.035-10.248-7.76-10.248-14.216c0-6.456,4.13-12.181,10.249-14.216l60.346-20.13l20.13-60.346    c4.513-13.571,23.918-13.571,28.431,0l20.13,60.346l60.346,20.13c6.12,2.035,10.248,7.76,10.248,14.216    C270.992,172.406,266.864,178.131,260.744,180.166z" fill="#ffffff" data-original="#000000" style="" class=""/>
	</g>
</g>
<g xmlns="http://www.w3.org/2000/svg">
</g>
<g xmlns="http://www.w3.org/2000/svg">
</g>
<g xmlns="http://www.w3.org/2000/svg">
</g>
<g xmlns="http://www.w3.org/2000/svg">
</g>
<g xmlns="http://www.w3.org/2000/svg">
</g>
<g xmlns="http://www.w3.org/2000/svg">
</g>
<g xmlns="http://www.w3.org/2000/svg">
</g>
<g xmlns="http://www.w3.org/2000/svg">
</g>
<g xmlns="http://www.w3.org/2000/svg">
</g>
<g xmlns="http://www.w3.org/2000/svg">
</g>
<g xmlns="http://www.w3.org/2000/svg">
</g>
<g xmlns="http://www.w3.org/2000/svg">
</g>
<g xmlns="http://www.w3.org/2000/svg">
</g>
<g xmlns="http://www.w3.org/2000/svg">
</g>
<g xmlns="http://www.w3.org/2000/svg">
</g>
</g></svg>
