<?xml version="1.0" encoding="utf-8"?>
<!-- Generator: Adobe Illustrator 25.0.0, SVG Export Plug-In . SVG Version: 6.00 Build 0)  -->
<svg version="1.1" id="Camada_1" xmlns:svgjs="http://svgjs.com/svgjs"
	 xmlns="http://www.w3.org/2000/svg" xmlns:xlink="http://www.w3.org/1999/xlink" x="0px" y="0px" viewBox="0 0 512 512"
	 style="enable-background:new 0 0 512 512;" xml:space="preserve">
<style type="text/css">
	.st0{fill:url(#SVGID_1_);}
</style>
<g>
	<linearGradient id="SVGID_1_" gradientUnits="userSpaceOnUse" x1="255.9995" y1="-2.657573e-04" x2="255.9995" y2="512">
		<stop  offset="0" style="stop-color:#E9695C"/>
		<stop  offset="1" style="stop-color:#E03459"/>
	</linearGradient>
	<path class="st0" d="M404.6,325.6c15.9-26.6,26.5-60.3,28.5-93.6c1.3-21.4-3.5-43.8-13.8-65c-16.2-33.2-44-51.8-70.9-69.8
		c-20-13.4-39-26.1-52.4-44.2l-2.4-3.2c-7.9-10.6-16.9-22.7-18.3-32.8C274,6.7,264.7-0.6,254.5,0c-10.3,0.7-18.3,9.3-18.3,19.6
		v350.9c-16.5-10-36.8-16.1-59.1-16.1c-54.3,0-98.5,35.3-98.5,78.8s44.2,78.8,98.5,78.8s98.5-35.3,98.5-78.8V203.7
		c29.6,11.3,78,40.1,91.3,107.3c-2.5,3.7-4.8,7.6-7.6,10.8c-7.2,8.2-6.4,20.6,1.8,27.8c8.1,7.2,20.6,6.4,27.8-1.8
		c5.3-6,10-13,14.5-20.3C403.8,326.9,404.2,326.3,404.6,325.6L404.6,325.6z"/>
</g>
</svg>
