<?xml version="1.0" encoding="utf-8"?>
<!-- Generator: Adobe Illustrator 25.0.0, SVG Export Plug-In . SVG Version: 6.00 Build 0)  -->
<svg version="1.1" id="Camada_1" xmlns:svgjs="http://svgjs.com/svgjs"
	 xmlns="http://www.w3.org/2000/svg" xmlns:xlink="http://www.w3.org/1999/xlink" x="0px" y="0px" viewBox="0 0 512 512"
	 style="enable-background:new 0 0 512 512;" xml:space="preserve">
<style type="text/css">
	.st0{fill:url(#SVGID_1_);}
	.st1{fill:url(#SVGID_2_);}
	.st2{fill:url(#SVGID_3_);}
</style>
<g>
	<g>
		<g>
			<linearGradient id="SVGID_1_" gradientUnits="userSpaceOnUse" x1="270.2417" y1="-6.728313e-06" x2="270.2417" y2="512.0007">
				<stop  offset="0" style="stop-color:#E9695C"/>
				<stop  offset="1" style="stop-color:#E03459"/>
			</linearGradient>
			<path class="st0" d="M498.7,435.3L297.9,234.6L63.4,0H45l-3.7,9.5c-9.9,25.1-14.1,50.8-12.2,74.2c2.2,26.8,12.3,49.9,29.4,67
				l183.1,183.1l24.2-24.2L435,499c16.8,16.8,45.8,17.8,63.7,0C516.2,481.4,516.2,452.9,498.7,435.3z"/>
		</g>
	</g>
	<g>
		<g>
			<linearGradient id="SVGID_2_" gradientUnits="userSpaceOnUse" x1="110.2735" y1="291.442" x2="110.2735" y2="511.5813">
				<stop  offset="0" style="stop-color:#E9695C"/>
				<stop  offset="1" style="stop-color:#E03459"/>
			</linearGradient>
			<path class="st1" d="M156.7,291.4L13.3,434.9c-17.6,17.6-17.6,46.1,0,63.7c16.7,16.7,45.5,18.1,63.7,0l143.4-143.4L156.7,291.4z"
				/>
		</g>
	</g>
	<g>
		<g>
			<linearGradient id="SVGID_3_" gradientUnits="userSpaceOnUse" x1="392.915" y1="0.361" x2="392.915" y2="237.483">
				<stop  offset="0" style="stop-color:#E9695C"/>
				<stop  offset="1" style="stop-color:#E03459"/>
			</linearGradient>
			<path class="st2" d="M490.3,85.2l-81.4,81.4l-21.2-21.2L469,64l-21.2-21.2l-81.4,81.3l-21.2-21.2l81.4-81.3L405.4,0.4
				L299.3,106.5c-13,13-20.7,30.2-21.8,48.5c-0.3,4.6-1.3,9.2-3.1,13.5l68.9,68.9c4.3-1.7,8.9-2.8,13.5-3.1
				c18.3-1.1,35.6-8.8,48.5-21.8l106.1-106.1L490.3,85.2z"/>
		</g>
	</g>
</g>
</svg>
