<?xml version="1.0"?>
<svg xmlns="http://www.w3.org/2000/svg" xmlns:xlink="http://www.w3.org/1999/xlink" xmlns:svgjs="http://svgjs.com/svgjs" version="1.1" width="512" height="512" x="0" y="0" viewBox="0 0 512 512" style="enable-background:new 0 0 512 512" xml:space="preserve"><g><g xmlns="http://www.w3.org/2000/svg"><ellipse cx="336" cy="101.91" rx="63.087" ry="79.164" fill="#ffffff" data-original="#000000" style=""/><ellipse cx="176" cy="101.91" rx="63.087" ry="79.164" fill="#ffffff" data-original="#000000" style=""/><circle cx="55" cy="205.91" r="55" fill="#ffffff" data-original="#000000" style=""/><circle cx="457" cy="205.91" r="55" fill="#ffffff" data-original="#000000" style=""/><path d="m256 226.001c-56.898 0-99.567 17.909-130.446 54.751-27.352 32.634-42.207 75.593-56.571 116.452-17.654 50.073 25.774 100.643 78.212 90.57 43.022-8.274 102.11-22.214 186.562-5.971 32.546 6.259 35.57 7.254 44.419 7.254 46.226-.002 80.956-46.141 64.839-91.854-28.735-81.744-59.366-171.202-187.015-171.202zm40 146.909h-25v25c0 8.284-6.716 15-15 15s-15-6.716-15-15v-25h-25c-8.284 0-15-6.716-15-15s6.716-15 15-15h25v-25c0-8.284 6.716-15 15-15s15 6.716 15 15v25h25c8.284 0 15 6.716 15 15s-6.716 15-15 15z" fill="#ffffff" data-original="#000000" style=""/></g></g></svg>
