<?xml version="1.0" encoding="utf-8"?>
<!-- Generator: Adobe Illustrator 25.0.0, SVG Export Plug-In . SVG Version: 6.00 Build 0)  -->
<svg version="1.1" id="Camada_1" xmlns:svgjs="http://svgjs.com/svgjs"
	 xmlns="http://www.w3.org/2000/svg" xmlns:xlink="http://www.w3.org/1999/xlink" x="0px" y="0px" viewBox="0 0 512 512"
	 style="enable-background:new 0 0 512 512;" xml:space="preserve">
<style type="text/css">
	.st0{fill:url(#SVGID_1_);}
	.st1{fill:url(#SVGID_2_);}
	.st2{fill:url(#SVGID_3_);}
	.st3{fill:url(#SVGID_4_);}
	.st4{fill:url(#SVGID_5_);}
</style>
<g>
	<g>
		<linearGradient id="SVGID_1_" gradientUnits="userSpaceOnUse" x1="336" y1="22.746" x2="336" y2="181.074">
			<stop  offset="0" style="stop-color:#E9695C"/>
			<stop  offset="1" style="stop-color:#E03459"/>
		</linearGradient>
		<ellipse class="st0" cx="336" cy="101.9" rx="63.1" ry="79.2"/>
		<linearGradient id="SVGID_2_" gradientUnits="userSpaceOnUse" x1="176" y1="22.746" x2="176" y2="181.074">
			<stop  offset="0" style="stop-color:#E9695C"/>
			<stop  offset="1" style="stop-color:#E03459"/>
		</linearGradient>
		<ellipse class="st1" cx="176" cy="101.9" rx="63.1" ry="79.2"/>
		<linearGradient id="SVGID_3_" gradientUnits="userSpaceOnUse" x1="55" y1="150.91" x2="55" y2="260.91">
			<stop  offset="0" style="stop-color:#E9695C"/>
			<stop  offset="1" style="stop-color:#E03459"/>
		</linearGradient>
		<circle class="st2" cx="55" cy="205.9" r="55"/>
		<linearGradient id="SVGID_4_" gradientUnits="userSpaceOnUse" x1="457" y1="150.91" x2="457" y2="260.91">
			<stop  offset="0" style="stop-color:#E9695C"/>
			<stop  offset="1" style="stop-color:#E03459"/>
		</linearGradient>
		<circle class="st3" cx="457" cy="205.9" r="55"/>
		<linearGradient id="SVGID_5_" gradientUnits="userSpaceOnUse" x1="256.001" y1="226.001" x2="256.001" y2="489.0663">
			<stop  offset="0" style="stop-color:#E9695C"/>
			<stop  offset="1" style="stop-color:#E03459"/>
		</linearGradient>
		<path class="st4" d="M256,226c-56.9,0-99.6,17.9-130.4,54.8C98.2,313.4,83.3,356.3,69,397.2c-17.7,50.1,25.8,100.6,78.2,90.6
			c43-8.3,102.1-22.2,186.6-6c32.5,6.3,35.6,7.3,44.4,7.3c46.2,0,81-46.1,64.8-91.9C414.3,315.5,383.6,226,256,226z M296,372.9h-25
			v25c0,8.3-6.7,15-15,15s-15-6.7-15-15v-25h-25c-8.3,0-15-6.7-15-15s6.7-15,15-15h25v-25c0-8.3,6.7-15,15-15s15,6.7,15,15v25h25
			c8.3,0,15,6.7,15,15S304.3,372.9,296,372.9z"/>
	</g>
</g>
</svg>
