<?xml version="1.0" encoding="utf-8"?>
<!-- Generator: Adobe Illustrator 25.0.0, SVG Export Plug-In . SVG Version: 6.00 Build 0)  -->
<svg version="1.1" id="color" xmlns="http://www.w3.org/2000/svg" xmlns:xlink="http://www.w3.org/1999/xlink" x="0px" y="0px"
	 viewBox="0 0 512 512" style="enable-background:new 0 0 512 512;" xml:space="preserve">
<style type="text/css">
	.st0{fill:url(#SVGID_1_);}
</style>
<linearGradient id="SVGID_1_" gradientUnits="userSpaceOnUse" x1="511.9983" y1="256.0135" x2="-3.170575e-03" y2="256.0135">
	<stop  offset="0" style="stop-color:#E9695C"/>
	<stop  offset="1" style="stop-color:#E03459"/>
</linearGradient>
<path class="st0" d="M498.4,183.1l-157.4-24L270.5,8.8c-5.3-11.2-23.7-11.2-28.9,0L171,159.1l-157.4,24c-12.9,2-18.1,17.7-9,27
	l114.3,117.2L91.9,493c-2.2,13.2,11.9,23,23.5,16.6L256,431.9l140.6,77.7c11.5,6.4,25.7-3.3,23.5-16.6l-27-165.7l114.3-117.2
	C516.5,200.8,511.3,185.1,498.4,183.1L498.4,183.1z"/>
</svg>
