<?xml version="1.0" encoding="utf-8"?>
<!-- Generator: Adobe Illustrator 25.0.0, SVG Export Plug-In . SVG Version: 6.00 Build 0)  -->
<svg version="1.1" id="Camada_1" xmlns:svgjs="http://svgjs.com/svgjs"
	 xmlns="http://www.w3.org/2000/svg" xmlns:xlink="http://www.w3.org/1999/xlink" x="0px" y="0px" viewBox="0 0 512 512"
	 style="enable-background:new 0 0 512 512;" xml:space="preserve">
<style type="text/css">
	.st0{fill:url(#SVGID_1_);stroke:url(#SVGID_2_);stroke-miterlimit:10;}
</style>
<g>
	<g>
		<g>
			<linearGradient id="SVGID_1_" gradientUnits="userSpaceOnUse" x1="256" y1="512" x2="256" y2="-6.728314e-06">
				<stop  offset="0" style="stop-color:#13C1E0"/>
				<stop  offset="1" style="stop-color:#2897E3"/>
			</linearGradient>
			<linearGradient id="SVGID_2_" gradientUnits="userSpaceOnUse" x1="66.2826" y1="256" x2="445.7174" y2="256">
				<stop  offset="0" style="stop-color:#FFFFFF"/>
				<stop  offset="1" style="stop-color:#000000"/>
			</linearGradient>
			<path class="st0" d="M395.7,0H116.3C89,0,66.8,22.3,66.8,49.5v431.6c0,11.7,6.8,22.9,17.3,27.8c11.1,4.9,23.5,3.7,32.8-3.7
				l0.6-0.6L256,387.7l138.5,116.9l0.6,0.6c5.6,4.3,12.4,6.8,19.2,6.8c4.3,0,9.3-1.2,13.6-3.7c10.5-4.9,17.3-16.1,17.3-27.8v-431
				C445.2,22.3,423,0,395.7,0z"/>
		</g>
	</g>
</g>
</svg>
